<mxfile host="app.diagrams.net" modified="2020-06-16T07:13:33.469Z" agent="5.0 (Windows NT 6.3; Win64; x64) AppleWebKit/537.36 (KHTML, like Gecko) Chrome/74.0.3729.169 Safari/537.36" etag="rJklxMISihdWSrhI4YAR" version="13.2.4" type="github">
  <diagram id="ON5j_xGvzO0sUS6ltA9j" name="Page-1">
    <mxGraphModel dx="868" dy="450" grid="1" gridSize="10" guides="1" tooltips="1" connect="1" arrows="1" fold="1" page="1" pageScale="1" pageWidth="827" pageHeight="1169" math="0" shadow="0">
      <root>
        <mxCell id="0" />
        <mxCell id="1" parent="0" />
        <mxCell id="67ZJVcpwlXeCmWX8W9fx-5" value="&lt;p style=&quot;margin: 0px ; margin-top: 4px ; text-align: center&quot;&gt;&lt;i&gt;&amp;lt;&amp;lt;Interface&amp;gt;&amp;gt;&lt;/i&gt;&lt;br&gt;&lt;b&gt;ICache&lt;/b&gt;&lt;/p&gt;&lt;hr size=&quot;1&quot;&gt;&lt;p style=&quot;margin: 0px ; margin-left: 4px&quot;&gt;+ get(Object key): Object&lt;br&gt;+ put(Object key, Object value): void&lt;/p&gt;" style="verticalAlign=top;align=left;overflow=fill;fontSize=12;fontFamily=Helvetica;html=1;" vertex="1" parent="1">
          <mxGeometry x="220" y="185" width="210" height="100" as="geometry" />
        </mxCell>
        <mxCell id="67ZJVcpwlXeCmWX8W9fx-6" value="+ delete(Object key):void" style="text;strokeColor=none;fillColor=none;align=left;verticalAlign=top;spacingLeft=4;spacingRight=4;overflow=hidden;rotatable=0;points=[[0,0.5],[1,0.5]];portConstraint=eastwest;" vertex="1" parent="1">
          <mxGeometry x="218" y="251" width="191" height="26" as="geometry" />
        </mxCell>
        <mxCell id="67ZJVcpwlXeCmWX8W9fx-9" value="&lt;p style=&quot;margin: 0px ; margin-top: 4px ; text-align: center&quot;&gt;&lt;i&gt;&amp;lt;&amp;lt;Interface&amp;gt;&amp;gt;&lt;/i&gt;&lt;br&gt;&lt;b&gt;IRebuildCache&lt;/b&gt;&lt;/p&gt;&lt;hr size=&quot;1&quot;&gt;&lt;p style=&quot;margin: 0px ; margin-left: 4px&quot;&gt;&lt;span&gt;+ reBuild(Config conf): void&lt;/span&gt;&lt;/p&gt;" style="verticalAlign=top;align=left;overflow=fill;fontSize=12;fontFamily=Helvetica;html=1;" vertex="1" parent="1">
          <mxGeometry x="470" y="193" width="190" height="100" as="geometry" />
        </mxCell>
        <mxCell id="67ZJVcpwlXeCmWX8W9fx-10" value="&lt;p style=&quot;margin: 0px ; margin-top: 4px ; text-align: center&quot;&gt;&lt;b&gt;Cache&lt;/b&gt;&lt;/p&gt;&lt;hr size=&quot;1&quot;&gt;&lt;p style=&quot;margin: 0px ; margin-left: 4px&quot;&gt;+ get(): Object&lt;/p&gt;" style="verticalAlign=top;align=left;overflow=fill;fontSize=12;fontFamily=Helvetica;html=1;" vertex="1" parent="1">
          <mxGeometry x="362" y="383" width="220" height="90" as="geometry" />
        </mxCell>
        <mxCell id="67ZJVcpwlXeCmWX8W9fx-12" value="" style="endArrow=block;dashed=1;endFill=0;endSize=12;html=1;entryX=0.69;entryY=1.04;entryDx=0;entryDy=0;entryPerimeter=0;exitX=0.45;exitY=-0.011;exitDx=0;exitDy=0;exitPerimeter=0;" edge="1" parent="1" source="67ZJVcpwlXeCmWX8W9fx-10" target="67ZJVcpwlXeCmWX8W9fx-5">
          <mxGeometry width="160" relative="1" as="geometry">
            <mxPoint x="262" y="343" as="sourcePoint" />
            <mxPoint x="422" y="343" as="targetPoint" />
          </mxGeometry>
        </mxCell>
        <mxCell id="67ZJVcpwlXeCmWX8W9fx-13" value="" style="endArrow=block;dashed=1;endFill=0;endSize=12;html=1;entryX=0.5;entryY=1;entryDx=0;entryDy=0;exitX=0.5;exitY=0;exitDx=0;exitDy=0;" edge="1" parent="1" source="67ZJVcpwlXeCmWX8W9fx-10" target="67ZJVcpwlXeCmWX8W9fx-9">
          <mxGeometry width="160" relative="1" as="geometry">
            <mxPoint x="462" y="373" as="sourcePoint" />
            <mxPoint x="622" y="373" as="targetPoint" />
          </mxGeometry>
        </mxCell>
        <mxCell id="67ZJVcpwlXeCmWX8W9fx-15" value="+ put(Object key,Object value): void" style="text;strokeColor=none;fillColor=none;align=left;verticalAlign=top;spacingLeft=4;spacingRight=4;overflow=hidden;rotatable=0;points=[[0,0.5],[1,0.5]];portConstraint=eastwest;" vertex="1" parent="1">
          <mxGeometry x="360" y="421" width="210" height="26" as="geometry" />
        </mxCell>
        <mxCell id="67ZJVcpwlXeCmWX8W9fx-16" value="+ delete(Object key,Object value): void" style="text;strokeColor=none;fillColor=none;align=left;verticalAlign=top;spacingLeft=4;spacingRight=4;overflow=hidden;rotatable=0;points=[[0,0.5],[1,0.5]];portConstraint=eastwest;" vertex="1" parent="1">
          <mxGeometry x="360" y="435" width="222" height="26" as="geometry" />
        </mxCell>
        <mxCell id="67ZJVcpwlXeCmWX8W9fx-17" value="+ rebuild(Config conf): void" style="text;strokeColor=none;fillColor=none;align=left;verticalAlign=top;spacingLeft=4;spacingRight=4;overflow=hidden;rotatable=0;points=[[0,0.5],[1,0.5]];portConstraint=eastwest;" vertex="1" parent="1">
          <mxGeometry x="359" y="449" width="210" height="26" as="geometry" />
        </mxCell>
        <mxCell id="67ZJVcpwlXeCmWX8W9fx-22" value="&lt;p style=&quot;margin: 0px ; margin-top: 4px ; text-align: center&quot;&gt;&lt;br&gt;&lt;b&gt;AppService&lt;/b&gt;&lt;/p&gt;" style="verticalAlign=top;align=left;overflow=fill;fontSize=12;fontFamily=Helvetica;html=1;" vertex="1" parent="1">
          <mxGeometry x="243.5" y="60" width="140" height="60" as="geometry" />
        </mxCell>
        <mxCell id="67ZJVcpwlXeCmWX8W9fx-24" value="&lt;p style=&quot;margin: 0px ; margin-top: 4px ; text-align: center&quot;&gt;&lt;br&gt;&lt;b&gt;RemoteSerice&lt;/b&gt;&lt;/p&gt;" style="verticalAlign=top;align=left;overflow=fill;fontSize=12;fontFamily=Helvetica;html=1;" vertex="1" parent="1">
          <mxGeometry x="480" y="60" width="140" height="60" as="geometry" />
        </mxCell>
        <mxCell id="67ZJVcpwlXeCmWX8W9fx-26" value="" style="endArrow=open;endSize=12;dashed=1;html=1;entryX=0.457;entryY=0;entryDx=0;entryDy=0;exitX=0.5;exitY=1;exitDx=0;exitDy=0;entryPerimeter=0;" edge="1" parent="1" source="67ZJVcpwlXeCmWX8W9fx-22" target="67ZJVcpwlXeCmWX8W9fx-5">
          <mxGeometry width="160" relative="1" as="geometry">
            <mxPoint x="270" y="120" as="sourcePoint" />
            <mxPoint x="430" y="120" as="targetPoint" />
          </mxGeometry>
        </mxCell>
        <mxCell id="67ZJVcpwlXeCmWX8W9fx-28" value="" style="endArrow=open;endSize=12;dashed=1;html=1;entryX=0.442;entryY=0;entryDx=0;entryDy=0;entryPerimeter=0;" edge="1" parent="1" target="67ZJVcpwlXeCmWX8W9fx-9">
          <mxGeometry width="160" relative="1" as="geometry">
            <mxPoint x="550" y="110" as="sourcePoint" />
            <mxPoint x="710" y="110" as="targetPoint" />
          </mxGeometry>
        </mxCell>
      </root>
    </mxGraphModel>
  </diagram>
</mxfile>
